<svg xmlns="http://www.w3.org/2000/svg" xmlns:xlink="http://www.w3.org/1999/xlink" version="1.1" x="0px" y="0px" viewBox="0 0 100 125" enable-background="new 0 0 100 100" xml:space="preserve"><path fill-rule="evenodd" clip-rule="evenodd" d="M73.9887695,13.3515625l0.8500977,1.4003906  c0.0332031,0.0664063,0.1333008,0.2832031,0.2998047,0.6503906c0.1669922,0.265625,0.2836914,0.5,0.3500977,0.6992188l0.5,1.25  c0.1000977,0.2675781,0.2333984,0.6503906,0.3999023,1.1503906c0.2333984,0.7324219,0.4667969,1.6171875,0.7001953,2.6503906  h0.3500977c0.3330078,0,0.6333008,0.015625,0.8999023,0.0488281c0-0.0332031,0.0166016-0.0488281,0.0498047-0.0488281  c0.2001953-0.6015625,0.6000977-1.0332031,1.2001953-1.3007813c0.1333008-0.0664063,0.2666016-0.1171875,0.3999023-0.1503906  c1-0.0996094,1.8334961,0.2011719,2.5,0.9003906c0.2333984,0.2324219,0.3833008,0.5175781,0.4501953,0.8496094  c0.0664063,0.234375,0.0830078,0.4667969,0.0498047,0.7011719c0.3334961,0.1328125,0.6665039,0.2988281,1,0.5l1.5,1.0996094  l0.6499023,0.75l0.550293,0.8496094c0.0332031,0.1328125,0.1333008,0.3164063,0.2998047,0.5507813  c0.1000977,0.265625,0.1665039,0.4824219,0.2001953,0.6484375c0.2666016,0.6015625,0.449707,1.484375,0.5498047,2.6503906v0.6503906  c0,0.4003906,0,0.6328125,0,0.6992188c-0.1000977,0.8339844-0.1499023,1.2832031-0.1499023,1.3515625  c-0.1000977,0.5996094-0.2001953,1.0664063-0.2998047,1.3984375l-0.4003906,1.3515625  c-0.0332031,0.1328125-0.2163086,0.5820313-0.5498047,1.3496094l-0.3500977,0.6992188  c-0.2666016,0.4003906-0.3999023,0.6171875-0.3999023,0.6503906l-1.3999023,1.8007813  c-0.2333984,0.265625-0.4169922,0.4492188-0.550293,0.5488281c-0.7333984,0.6679688-1.6166992,1.2675781-2.6499023,1.8007813  l-1,0.4492188l-0.0498047,0.0507813c-0.300293,0.7988281-0.6835938,1.4667969-1.1499023,2  c-0.4335938,0.5-0.9169922,0.8164063-1.4501953,0.9492188c-0.6333008,0.1328125-1.2998047-0.0332031-2-0.5  c-0.4667969-0.265625-0.9165039-0.6503906-1.3500977-1.1503906c-0.5664063,0.0332031-1.0834961,0.0507813-1.5498047,0.0507813  l-0.25,0.0996094c0.6000977,0.3339844,1.5498047,0.8339844,2.8500977,1.5  c1.199707,0.5996094,2.0996094,1.0664063,2.699707,1.4003906c2.2001953,1.1660156,3.8999023,2.1835938,5.1000977,3.0507813  c0.7998047,0.5664063,1.4833984,1.1484375,2.0498047,1.75c0.7001953,0.6992188,1.25,1.4160156,1.6503906,2.1484375l0.25,0.6015625  c0.0332031,0.0664063,0.0996094,0.265625,0.199707,0.5996094c0.0332031,0.0996094,0.050293,0.3164063,0.050293,0.6503906  l0.0498047,0.3496094l-0.0498047,0.2988281c-0.0668945,0.8671875-0.300293,1.6171875-0.7001953,2.25  c-0.2675781,0.4179688-0.5512695,0.7832031-0.8500977,1.1015625c-0.9609375,0.7773438-2.1357422,1.3925781-3.5249023,1.8496094  l4.125-1c0.4155273,0.4199219,0.8823242,0.9707031,1.3999023,1.6503906c0.8334961,1.0332031,1.6000977,2.1484375,2.300293,3.3496094  c1.0664063,1.7988281,2.0166016,3.7324219,2.8496094,5.7988281c1.1005859,2.7011719,1.8505859,5.234375,2.25,7.6015625  l0.0498047,0.5c0,0.0332031,0.0175781,0.0664063,0.0507813,0.0996094c0,0.1328125,0,0.2832031,0,0.4492188l-1.5507813-0.0996094  c-1.3994141-0.1660156-2.5664063-0.2832031-3.4995117-0.3496094l-5.1499023-0.4003906  c-1.2670898-0.0332031-2.3168945,0-3.1503906,0.0996094c-1.0996094,0.1328125-2.3330078,0.3671875-3.699707,0.7011719l-4.25,1  c-1.2495117,0.2988281-2.3833008,0.515625-3.3999023,0.6484375l-0.550293-3.9492188l-0.4750977,4.0507813h-0.0249023l-0.3500977,2  c0.7001953,0.0332031,1.4667969,0.1152344,2.300293,0.25c0.8330078,0.1992188,1.5498047,0.4492188,2.1499023,0.75  c0.4331055,0.2324219,0.8164063,0.4824219,1.1499023,0.75c0.4335938,0.3984375,0.75,0.8496094,0.9501953,1.3496094  c0.1665039,0.5664063,0.1665039,1.1660156,0,1.7988281l-0.1000977,0.4511719l-0.2001953,0.4492188  c-0.199707,0.3339844-0.4165039,0.5996094-0.6499023,0.8007813c-0.0664063,0.0664063-0.1166992,0.1171875-0.1499023,0.1503906  c-0.0668945,0.0332031-0.1166992,0.0664063-0.1499023,0.0996094c-0.4667969,0.2988281-1,0.5332031-1.6000977,0.6992188  c-0.5668945,0.1679688-1.25,0.2832031-2.0498047,0.3496094c-1.0336914,0.0683594-2.5668945,0.0175781-4.6000977-0.1484375  l-0.300293-0.0507813c-0.0664063,0-0.1665039,0-0.2998047,0l-1.9501953-0.1992188  c-1.1333008-0.2011719-2.0498047-0.6503906-2.75-1.3515625c-0.7333984-0.6992188-1.25-1.6484375-1.5498047-2.8496094  c-0.1000977-0.4003906-0.2001953-0.9160156-0.2998047-1.5488281l-0.2001953-1.5507813  c-0.0297852-0.4179688-0.1132813-1.0332031-0.25-1.8496094c-0.0083008-0.0507813-0.0166016-0.0996094-0.0249023-0.1503906  c-2.4018555-0.0214844-4.5102539-0.1894531-6.3251953-0.5c-0.0332031,0-1-0.1835938-2.8999023-0.5507813l-3.2998047-0.5488281  c-1.3334961-0.1835938-2.6669922-0.2832031-4-0.3007813l1.199707-2.75l-2.199707,2.75c-0.0302734,0-0.0634766,0-0.1000977,0  c-0.0395508,0.0507813-0.0810547,0.0996094-0.125,0.1503906c-1.4316406,1.8164063-2.4233398,3.0332031-2.9750977,3.6503906  c-1.7998047,2.0996094-3.5332031,3.6171875-5.2001953,4.5488281c-1,0.5683594-2.0166016,0.9179688-3.0498047,1.0507813  s-2.0498047,0.0839844-3.0498047-0.1503906c-0.4003906-0.1328125-0.8500977-0.3320313-1.3500977-0.5996094  c-0.5336914-0.3007813-0.9169922-0.5332031-1.1499023-0.6992188c-0.7333984-0.5-1.3837891-1.0332031-1.9501953-1.6015625  c-0.6000977-0.5664063-1.1166992-1.1484375-1.5498047-1.75c-0.4335938-0.6992188-0.75-1.3828125-0.9501953-2.0488281  c-0.1000977-0.4003906-0.1499023-0.7675781-0.1499023-1.0996094c0.0332031-0.4003906,0.1166992-0.75,0.25-1.0507813  c0.1333008-0.4003906,0.3164063-0.6992188,0.5498047-0.9003906c0.1333008-0.1660156,0.2333984-0.2832031,0.300293-0.3496094  l0.3999023-0.3007813c0.5-0.3652344,1.0498047-0.5820313,1.6499023-0.6484375c0.4667969-0.0332031,0.9833984,0,1.5498047,0.0996094  c0.6333008,0.1660156,1.2666016,0.4160156,1.9003906,0.75l0.3999023-0.9003906c-0.5-0.0996094-1.1166992-0.25-1.8500977-0.4492188  c-0.6333008-0.1679688-1.1333008-0.3007813-1.5-0.4003906c-0.6333008-0.1679688-1.2001953-0.3007813-1.7001953-0.4003906l-2-0.25  c-0.7333984-0.0664063-1.5332031-0.0507813-2.3999023,0.0507813c-1.0332031,0.0664063-1.8999023,0.2167969-2.6000977,0.4492188  c-0.6333008,0.1992188-1.1499023,0.4160156-1.5498047,0.6503906l-0.3999023,1.4492188  c-0.1669922,0.8671875-0.2666016,1.3164063-0.300293,1.3496094l-0.199707,1.25  c-0.0336914,0.234375-0.1000977,0.6171875-0.2001953,1.1503906l-0.25,2.8496094v0.6015625c0,0.2324219,0,0.4824219,0,0.75  l-0.699707-0.9003906v-0.0507813l-0.7001953-0.9492188c-0.8999023-1.2675781-1.75-2.8007813-2.5498047-4.5996094l-0.7001953-1.5  c-0.2998047-0.734375-0.5166016-1.3007813-0.6499023-1.7011719c-0.5-1.3671875-0.800293-2.765625-0.8999023-4.1992188  c-0.1000977-1.5996094,0.0664063-3.2675781,0.5-5c0.4663086-1.8007813,1.2163086-3.5839844,2.25-5.3496094  c0.4663086-0.8007813,1.0498047-1.6679688,1.75-2.6015625c0.6665039-0.8984375,1.4165039-1.765625,2.25-2.5996094  c1.3999023-1.4335938,2.8999023-2.7167969,4.5-3.8496094l0.5498047-1.1992188  c0.2001953-0.3671875,0.3164063-0.5839844,0.3500977-0.6503906c1.1000977-1.8671875,2.6499023-3.4667969,4.6499023-4.8007813  c1.6665039-1.0996094,3.9165039-2.1835938,6.75-3.25c1.0664063-0.4335938,2.7333984-1.0664063,5-1.9003906  c-0.2998047-0.3320313-0.5498047-0.6484375-0.75-0.9492188c-0.2001953-0.3671875-0.3666992-0.7324219-0.5-1.0996094  c-0.1333008-0.4335938-0.1835938-0.9003906-0.1499023-1.4003906c0-0.2324219,0.0166016-0.5,0.0498047-0.8007813  c0.0668945-0.3652344,0.1499023-0.6484375,0.25-0.8496094c0.2333984-0.5664063,0.6166992-1.1171875,1.1499023-1.6503906  c0.5668945-0.5664063,1.4833984-1.1992188,2.75-1.8984375l0.050293-0.6503906h-0.1499023  c-0.3081055-0.0917969-0.5581055-0.2011719-0.75-0.3261719c-0.6000977-0.8183594-0.9003906-1.8925781-0.9003906-3.2246094  c0-0.2128906,0.0668945-0.5214844,0.2001953-0.9238281c0.0561523-0.0800781,0.1225586-0.1640625,0.2001953-0.25  c0.0844727-0.1035156,0.1845703-0.2109375,0.2998047-0.3261719l2.3999023,1.5507813l-1.7250977-1.7011719h0.0253906  l-0.2001953-0.1992188c-0.0498047-0.0625-0.0996094-0.1289063-0.1499023-0.1992188  c-0.2104492-0.2753906-0.4101563-0.5761719-0.6000977-0.9003906c-0.1333008-0.234375-0.25-0.5-0.3500977-0.8007813  c-0.1333008-0.4003906-0.1831055-0.7832031-0.1499023-1.1503906v-0.3496094l0.0498047-0.1992188l0.1000977-0.2011719  c0-0.0664063,0.0668945-0.1816406,0.2001953-0.3496094c0-0.0664063,0.0664063-0.1835938,0.199707-0.3496094  c0.3334961-0.3671875,0.75-0.6660156,1.25-0.9003906c0.4667969-0.265625,0.9833984-0.4667969,1.550293-0.5996094  c0.4331055-0.1328125,0.8330078-0.2324219,1.199707-0.3007813c0.2001953-0.3320313,0.4003906-0.6328125,0.6000977-0.8984375  l0.2001953-0.2011719v-0.0488281l-0.1000977-0.5507813c-0.1000977-0.3671875-0.1665039-0.8007813-0.2001953-1.3007813  c0-0.5996094,0.050293-1.1328125,0.1503906-1.5996094c0.1665039-0.6992188,0.4829102-1.2988281,0.949707-1.7988281  c0.2333984-0.2675781,0.5332031-0.5,0.8999023-0.7011719c0.1333008-0.0664063,0.3334961-0.1503906,0.6000977-0.25  c0.2001953-0.0664063,0.3833008-0.1171875,0.550293-0.1503906c0.7329102-0.1328125,1.5664063-0.1484375,2.5-0.0488281  c0.1455078,0.0175781,0.2871094,0.0351563,0.4248047,0.0488281c-0.7290039,2.0429688-1.7373047,3.9941406-3.0249023,5.8515625  c1.0849609-1.203125,1.9179688-2.21875,2.5-3.0507813c0.6318359-0.9082031,1.1318359-1.7832031,1.5-2.625  c0.0366211,0.0097656,0.0698242,0.0175781,0.1000977,0.0253906c0.2998047-0.5,0.6333008-0.9667969,1-1.4003906  c0.2666016-0.3007813,0.5-0.5507813,0.699707-0.75l0.7001953-0.6992188c0.6333008-0.5,1.2666016-0.8515625,1.8999023-1.0507813  c0.7001953-0.2675781,1.4501953-0.3828125,2.25-0.3496094c0.7666016,0.0332031,1.5166016,0.1992188,2.25,0.5  c1.3666992,0.5332031,2.6166992,1.4160156,3.75,2.6503906l0.3500977,0.5c0.5332031,0,0.9663086-0.0175781,1.2998047-0.0507813  c0.5-0.0664063,0.8999023-0.1503906,1.2001953-0.25c0.2333984-0.0664063,0.5498047-0.2167969,0.949707-0.4492188  c0.5-0.3007813,1.1166992-0.7851563,1.8500977-1.4511719c0.4667969-0.4003906,0.7832031-0.6503906,0.9501953-0.75  c0.3999023-0.2988281,0.7998047-0.515625,1.199707-0.6503906c0.4335938-0.1328125,0.9003906-0.1660156,1.4003906-0.0996094  c0.3999023,0.0664063,0.7998047,0.2011719,1.199707,0.4003906c0.5332031,0.265625,1.1166992,0.6660156,1.75,1.1992188  c0.4335938,0.4003906,0.6665039,0.6347656,0.7001953,0.7011719l1.25,1.4003906  C73.5390625,12.71875,73.722168,12.9511719,73.9887695,13.3515625z M75.3388672,22.2519531  c-2.2666016,0-4.5834961,0.1660156-6.9501953,0.5c-1.3330078,0.2324219-2.6499023,0.4824219-3.949707,0.75l-1.800293,0.4492188  c-1.4331055,0.3671875-2.9165039,0.8164063-4.449707,1.3496094l-3.5,1.3007813  c-0.3666992,0.1660156-0.7167969,0.3164063-1.050293,0.4492188c-0.6665039,0.3007813-1.1665039,0.5175781-1.5,0.6503906  c-2.199707,0.9335938-2.199707,0.7675781,0-0.5c1.9003906-1,3.8666992-1.8671875,5.9003906-2.5996094l0.5498047-0.1992188  l-0.7998047,0.0996094c-0.2670898,0.0332031-0.7333984,0.1171875-1.4003906,0.25l-6.7998047,1.6503906  c-0.8999023,0.265625-1.5834961,0.4667969-2.0498047,0.5996094l-1.050293,0.2988281  c-0.3666992,0.1015625-0.7333984,0.2167969-1.1000977,0.3515625l-2.25,0.7988281  c-0.5996094,0.2011719-1.3833008,0.5175781-2.3496094,0.9511719c-1.4003906,0.6328125-2.2333984,1-2.5,1.0996094  c-0.0668945,0.0332031-0.2333984,0.0996094-0.5,0.1992188l-0.3500977,1.5996094l-1.1499023,8.1503906  c0.2666016-0.0996094,0.8833008-0.3496094,1.8496094-0.75c0.8334961-0.3320313,1.3168945-0.4003906,1.4501953-0.1992188  c0.1000977,0.1328125,0.0498047,0.3164063-0.1499023,0.5488281c-0.1669922,0.234375-0.4169922,0.4667969-0.75,0.7011719  c-0.5336914,0.4003906-1.1333008,0.7324219-1.800293,1l-0.8496094,0.3496094v0.0507813l-0.4501953,0.1992188v-0.0507813  l-0.5,0.2011719v0.0488281l-0.3500977,0.1503906l-0.0498047-0.0488281l-1.8500977,0.75  c-1.7001953,0.5996094-2.9667969,1.0664063-3.7998047,1.3984375c-2.7001953,1-4.8500977,2.0332031-6.4501953,3.1015625  c-1.7998047,1.1992188-3.1835938,2.5820313-4.1499023,4.1484375l-0.1000977,0.1503906  c-0.4667969,0.7675781-0.7832031,1.4179688-0.9501953,1.9511719c-0.0332031,0.0996094-0.0498047,0.1992188-0.0498047,0.2988281  l-0.0498047,0.2011719c-0.1000977,0.4667969-0.1337891,0.9316406-0.1000977,1.3984375v0.0507813  c0.0332031,0.3007813,0.1000977,0.5839844,0.199707,0.8496094c0.2001953,0.6679688,0.5668945,1.2832031,1.1000977,1.8496094  l0.1499023,0.2011719l0.2001953,0.1503906c0.2333984,0.1992188,0.3666992,0.2988281,0.3999023,0.2988281l0.4501953,0.3007813  l0.449707,0.1992188c0.0336914,0,0.1835938,0.0507813,0.4501953,0.1503906l0.7998047,0.1992188  c0.2333984,0.0332031,0.4169922,0.0332031,0.550293,0c0.5332031,0.0683594,1.1333008,0.0332031,1.7998047-0.0996094h0.050293  c1.0664063-0.1992188,1.9165039-0.6328125,2.5498047-1.2988281c0.4667969-0.5332031,0.8500977-1.25,1.1499023-2.1503906  c0.2333984-0.7675781,0.3999023-1.6328125,0.5-2.5996094l0.300293-3.9511719l0.1499023,1  c0.0332031,0.4003906,0.0498047,0.6503906,0.0498047,0.75v0.0507813l1.1000977-0.7011719  c1.1000977-0.6660156,2.3500977-1.2832031,3.75-1.8496094c0.6665039-0.2988281,1.2666016-0.5488281,1.7998047-0.75  c0.6000977-0.1992188,1.0834961-0.3671875,1.4501953-0.5c0.2666016-0.0664063,0.7832031-0.2167969,1.5498047-0.4492188  c0.4003906-0.0996094,0.75-0.1835938,1.050293-0.25c0.3666992-0.0664063,0.6499023-0.1171875,0.8500977-0.1503906  c0.199707,0,0.3164063,0,0.3496094,0c0,0.0332031-0.0830078,0.1171875-0.25,0.25  c-0.2333984,0.1328125-0.5996094,0.3164063-1.0996094,0.5507813c-0.2001953,0.0996094-0.4335938,0.1992188-0.7001953,0.2988281  l-1.7001953,0.8007813h-0.0498047v0.9003906c-0.0668945,0.6328125-0.1333008,1.1152344-0.2001953,1.4492188  c-0.1333008,0.8671875-0.3330078,1.8671875-0.5996094,3c-0.3334961,1.1660156-0.7836914,2.6171875-1.3500977,4.3496094  l-3.050293,8.3496094c-0.6665039,1.8671875-1.2998047,3.5175781-1.8999023,4.9511719l-0.8500977,1.9492188  c-0.3999023,0.9003906-0.7998047,1.734375-1.199707,2.5l-0.300293,0.4003906h0.050293l-0.3500977,0.6503906h-0.0498047  l-0.6000977,0.9492188l0.0498047,0.0507813c0.9335938,0.5664063,1.8168945,1.2832031,2.6499023,2.1503906  c0,0.0332031,0.0166016,0.0488281,0.050293,0.0488281c0.4331055,0.5,0.7832031,0.984375,1.0498047,1.4511719  c0.1665039,0.265625,0.2666016,0.5,0.300293,0.6992188l0.0498047,0.1503906l-0.1000977-0.1503906  c-0.0332031-0.0332031-0.0834961-0.0839844-0.1499023-0.1503906c0-0.0332031-0.0166016-0.0664063-0.0498047-0.0996094  c-0.0668945-0.0996094-0.1503906-0.2167969-0.25-0.3496094c-0.2333984-0.2675781-0.550293-0.5839844-0.9501953-0.9511719  c-0.1000977-0.0996094-0.2001953-0.2167969-0.2998047-0.3496094c-0.8334961-0.6992188-1.7333984-1.3164063-2.7001953-1.8496094  l-1-0.4492188c-0.3999023-0.1347656-0.7832031-0.234375-1.1499023-0.3007813c-1-0.1660156-1.8168945,0.0175781-2.4501953,0.5507813  c-0.1665039,0.0996094-0.3334961,0.265625-0.5,0.5c-0.1000977,0.1328125-0.1665039,0.2167969-0.199707,0.25l-0.1503906,0.3496094  c-0.1333008,0.4335938-0.1166992,0.9335938,0.050293,1.5c0.0332031,0.1328125,0.0830078,0.2832031,0.1499023,0.4492188  c0.3999023,0.9003906,1.1166992,1.8164063,2.1499023,2.75c0.5668945,0.5332031,1.1665039,1,1.800293,1.4003906  c0.3330078,0.2324219,0.6831055,0.4335938,1.0498047,0.5996094c0.3666992,0.234375,0.7167969,0.4003906,1.0498047,0.5  c0.8666992,0.1679688,1.7167969,0.1835938,2.550293,0.0507813c0.8330078-0.1328125,1.6831055-0.4511719,2.5498047-0.9511719  c1.5-0.8320313,3.1000977-2.25,4.800293-4.25c0.5332031-0.5996094,1.2666016-1.515625,2.199707-2.75l1.2001953-1.5488281h0.0498047  l1.3500977-1.75c0.3666992-0.4335938,0.7167969-0.7832031,1.0498047-1.0507813  c0.0336914-0.0332031,0.0668945-0.0664063,0.1000977-0.0996094v-0.0507813  c0.0668945-0.0332031,0.1166992-0.0488281,0.1499023-0.0488281c0.2333984-0.2011719,0.4501953-0.3496094,0.6503906-0.4511719  c0.2666016-0.0996094,0.449707-0.0996094,0.5498047,0c0.1333008,0.1679688,0.0834961,0.4511719-0.1499023,0.8515625  c1.6000977,0.3652344,3.199707,0.5820313,4.7998047,0.6484375c1.7333984,0.0332031,3.5-0.0664063,5.300293-0.2988281  c0.4331055-0.0664063,1.1333008-0.1835938,2.0996094-0.3496094l6.8500977-1.6015625  c0.2666016-0.0664063,0.4165039-0.0820313,0.4501953-0.0488281c-0.0336914,0.0332031-0.1669922,0.1328125-0.3999023,0.2988281  l-0.800293,0.4003906c-0.3999023,0.2011719-0.9165039,0.4335938-1.5498047,0.7011719l-1.3500977,0.4492188l0.1000977,0.8496094  c0,0.8339844,0.1166992,1.9667969,0.3500977,3.4003906l0.0996094,0.5507813c0,0.0664063,0,0.1152344,0,0.1484375  c0.0336914,0.1347656,0.050293,0.2675781,0.050293,0.4003906c0.199707,1.0664063,0.3164063,1.8007813,0.3500977,2.2011719  l0.199707,1.5488281c0.0332031,0.234375,0.0668945,0.4667969,0.1000977,0.7011719  c0.0332031,0.2324219,0.0834961,0.4824219,0.1499023,0.75c0.2333984,0.9667969,0.6000977,1.6992188,1.1000977,2.1992188  c0.5332031,0.4667969,1.2333984,0.7832031,2.1000977,0.9492188c0.2666016,0.0683594,0.6499023,0.1347656,1.1499023,0.2011719  l1.25,0.0488281c2,0.234375,3.4667969,0.3183594,4.3999023,0.25c0.7333984-0.0332031,1.3500977-0.1152344,1.8500977-0.25  c0.1313477-0.0292969,0.2563477-0.0625,0.375-0.0996094c0.1220703-0.0351563,0.2382813-0.0761719,0.3500977-0.125  c0.0239258-0.0058594,0.0488281-0.0136719,0.074707-0.0253906v-0.0234375  c0.027832-0.0214844,0.0610352-0.046875,0.1000977-0.0761719c0.5356445-0.4023438,0.8525391-0.6679688,0.9501953-0.7988281  l0.1000977-0.1503906l0.0498047-0.1503906c0.0664063-0.1992188,0.1000977-0.3164063,0.1000977-0.3496094  c0.1333008-0.4335938,0.1333008-0.8496094,0-1.25c-0.2001953-0.5996094-0.7167969-1.1503906-1.550293-1.6503906  c-0.5332031-0.2675781-1.1665039-0.5175781-1.8999023-0.75c-0.699707-0.1992188-1.4331055-0.3339844-2.199707-0.4003906  l-0.7001953-0.0996094c-0.3666992-0.0332031-0.7666016-0.0507813-1.2001953-0.0507813c-0.1333008,0-0.2666016,0-0.3999023,0  s-0.25,0-0.3500977,0c-0.1665039,0-0.2666016,0-0.2998047,0h-0.1499023l0.1000977-0.0488281  c0.0664063,0,0.1162109-0.0175781,0.1499023-0.0507813c0.0664063-0.0332031,0.1499023-0.0488281,0.25-0.0488281  c0.1000977-0.0332031,0.199707-0.0683594,0.2998047-0.1015625c0.4335938-0.0996094,0.9833984-0.1484375,1.6499023-0.1484375h0.25  l0.75-8.0507813c0.1669922-3.1328125,0.300293-5.6992188,0.4003906-7.6992188l0.3496094-4.9511719  c0.300293-2.4335938,0.5166016-4.3164063,0.6503906-5.6503906c0.1333008-1.3320313,0.2329102-2.5996094,0.2998047-3.7988281  l0.0498047-2.6503906c0.0336914-0.9667969,0.0166016-1.8828125-0.0498047-2.75  c-0.0668945-1.2675781-0.2001953-2.4335938-0.3999023-3.5l-0.050293-0.0507813c-0.6665039,0.234375-1.25,0.4179688-1.75,0.5507813  c-0.3173828,0.0898438-0.6503906,0.1816406-1,0.2753906v0.0253906c0.8037109,4.9941406,1.2036133,8.0117188,1.2001953,9.0488281  c-0.0019531,5.0644531-1.2773438,8.7050781-3.8251953,10.9257813c-2.4765625,2.1523438-6.4848633,3.2285156-12.0249023,3.2246094  c-4.0170898-0.0058594-7.1586914-1.5390625-9.4248047-4.5996094c-1.980957-2.6875-2.9726563-5.9375-2.9750977-9.75  c-0.0083008-2.6445313,0.8168945-5.6289063,2.4750977-8.9511719h0.0249023  c0.7314453-1.40625,1.8481445-3.296875,3.3500977-5.6738281v-0.0253906l0.0249023-0.0253906  c-0.0625-0.0390625-0.1206055-0.0800781-0.1748047-0.125c-1.4667969-1.0664063-2.5170898-1.8671875-3.1503906-2.4003906  l-0.5-0.4492188l0.6000977,0.25c0.6333008,0.3007813,1.7832031,0.9667969,3.4501953,2  c0.4331055,0.2675781,0.8330078,0.5175781,1.199707,0.75c1,0.6328125,1.7666016,1.0996094,2.300293,1.4003906  c0.1665039,0.0996094,0.3500977,0.1992188,0.5498047,0.2988281c1.6665039,0.9335938,3.2666016,1.6679688,4.800293,2.2011719  c0.199707,0.0996094,0.4663086,0.1835938,0.7998047,0.25c0.3999023,0.1328125,0.7001953,0.2167969,0.8999023,0.25  l1.7749023,0.3496094l-0.2246094-0.1992188l-0.25-0.3007813c-0.2333984-0.3339844-0.4169922-0.7324219-0.550293-1.1992188  c-0.1333008-0.3339844-0.2333984-0.7675781-0.2998047-1.3007813l-0.050293-0.8007813  c-0.0332031,0-0.0498047-0.015625-0.0498047-0.0488281l-0.6499023-0.3496094  c-1.1000977-0.6347656-2.1835938-1.4179688-3.25-2.3515625c-0.300293-0.265625-0.7001953-0.6660156-1.2001953-1.1992188  l-0.449707,0.3496094c-0.1669922,0.0996094-0.2836914,0.1835938-0.3500977,0.25l-0.5,0.4003906  c-0.2333984,0.1992188-0.4169922,0.3164063-0.550293,0.3496094l-0.1499023,0.0507813  c-0.0332031-0.0332031-0.0498047-0.0839844-0.0498047-0.1503906c0-0.1660156,0.0498047-0.4003906,0.1499023-0.6992188  c0.1000977-0.1679688,0.2167969-0.3847656,0.3500977-0.6503906c0.0332031-0.0664063,0.1333008-0.1835938,0.2998047-0.3496094  l0.4501953-0.5c0.3330078-0.3007813,0.6831055-0.5683594,1.0498047-0.8007813c0.5-0.3007813,1.0834961-0.5839844,1.75-0.8496094  c0.1000977-0.0332031,0.2001953-0.0175781,0.300293,0.0488281c0.1333008,0.0683594,0.25,0.234375,0.3496094,0.5  c0.1333008,0.4667969,0.0834961,0.75-0.1499023,0.8515625l-1.199707,0.5  c0.4331055,0.3984375,0.7163086,0.6660156,0.8496094,0.7988281c0.9003906,0.8007813,1.8500977,1.5,2.8500977,2.0996094  l0.8999023,0.5c0.7666016,0.3671875,1.6503906,0.734375,2.6503906,1.1015625c0.8999023,0.265625,2.0664063,0.5664063,3.5,0.8984375  l0.2998047,0.0507813c0.2001953,0.0332031,0.3833008,0.0664063,0.5498047,0.0996094  c0.7666016,0.1679688,1.6333008,0.3496094,2.6000977,0.5507813l1.8999023,0.25c0.1333008,0,0.25,0.015625,0.3500977,0.0488281  l1.8999023,0.1015625c0.2666016,0.0332031,0.5166016,0.0332031,0.75,0c0.5,0,0.8666992-0.0175781,1.1000977-0.0507813  l1.8999023-0.1992188c0.7001953-0.1015625,1.2836914-0.2167969,1.75-0.3515625c0.8334961-0.2324219,1.5834961-0.5,2.25-0.7988281  l0.550293-0.25l0.0498047-0.0507813c0.8666992-0.5,1.6166992-1.0332031,2.25-1.5996094  c0.4667969-0.4003906,0.8666992-0.8164063,1.2001953-1.25c0.199707-0.2675781,0.3833008-0.5332031,0.5498047-0.8007813  c0.5332031-0.8652344,0.9165039-1.6660156,1.1499023-2.3984375l0.4003906-1.25c0.0332031-0.1679688,0.1162109-0.5839844,0.25-1.25  c0.0332031-0.1679688,0.0498047-0.3183594,0.0498047-0.4511719c0.0332031-0.0664063,0.0498047-0.1328125,0.0498047-0.1992188  l0.050293-1.8496094l-0.300293-1.7011719l-0.25-0.8496094l-0.3496094-0.75  c-0.2670898-0.4003906-0.4833984-0.6835938-0.6503906-0.8496094c-0.3666992-0.4667969-0.8999023-0.9179688-1.5996094-1.3496094  c-0.8666992-0.5-1.8500977-0.8515625-2.9501953-1.0507813c-0.8666992-0.1660156-1.8833008-0.2675781-3.0498047-0.3007813  c-0.1337891,0-0.2670898,0-0.4003906,0L75.3388672,22.2519531z M77.1889648,44.1523438  c0.3666992-0.1015625,0.7163086-0.3339844,1.0498047-0.7011719c0.300293-0.265625,0.5834961-0.6328125,0.8500977-1.0996094  c-1.2333984,0.4003906-2.5498047,0.6835938-3.9501953,0.8496094c0.2333984,0.2011719,0.4501953,0.3828125,0.6503906,0.5507813  C76.3222656,44.0839844,76.7890625,44.21875,77.1889648,44.1523438z M74.1386719,46.1015625  c-0.7998047-0.4003906-1.5-0.75-2.0996094-1.0507813c0.0664063,0.3671875,0.1162109,0.7675781,0.1499023,1.2011719  c0.1333008,1.2324219,0.1831055,2.5996094,0.1499023,4.0996094l-0.0498047,1.6992188  c0.5,0.2011719,0.9663086,0.4179688,1.3999023,0.6503906c0.8999023,0.4335938,1.6665039,0.8671875,2.2998047,1.3007813  c0.2333984,0.0996094,0.5332031,0.2832031,0.8999023,0.5488281l0.6503906,0.5507813h0.0498047l1,0.9003906  c0.6665039,0.6992188,0.9833984,1.1171875,0.9501953,1.25c-0.1337891,0.0332031-0.6000977-0.2011719-1.4003906-0.7011719  l-0.75-0.3984375c-0.0332031,0.3320313-0.0498047,0.6328125-0.0498047,0.8984375  c0.0664063,0.6679688,0.2998047,1.2011719,0.7001953,1.6015625c0.2666016,0.2988281,0.5498047,0.515625,0.8496094,0.6484375  l1.1503906,0.5c0.4331055,0.1015625,0.8662109,0.1347656,1.2998047,0.1015625  c0.4667969-0.0683594,0.9501953-0.1835938,1.4501953-0.3515625l0.699707-0.3496094l1-0.75  c0.2666016-0.265625,0.5332031-0.6171875,0.800293-1.0488281l0.199707-0.4003906l0.25-0.8496094l0.050293-0.4511719  l-0.050293-0.4492188c0-0.2675781-0.0166016-0.4179688-0.0498047-0.4511719l-0.050293-0.25l-0.2998047-0.6992188  c-0.6000977-1.0332031-1.7167969-2.1503906-3.3500977-3.3496094c-0.3334961-0.2011719-0.6831055-0.4335938-1.0498047-0.7011719  c-1.0336914-0.6328125-2.3168945-1.3652344-3.8500977-2.1992188C75.9555664,47.0351563,74.972168,46.5351563,74.1386719,46.1015625z   M71.8886719,19.2011719l-0.0498047-0.1503906l-0.1000977,0.0507813c-0.1000977,0.0332031-0.2666016,0.1328125-0.5,0.3007813  c-0.3999023,0.2324219-0.75,0.3828125-1.0498047,0.4492188c-0.6669922,0.0996094-1.3833008-0.0507813-2.1499023-0.4492188  c-0.1337891-0.1015625-0.3334961,0.0488281-0.6000977,0.4492188c-0.1669922,0.2324219-0.2333984,0.4335938-0.2001953,0.5996094  c0,0.0996094,0.050293,0.1679688,0.1499023,0.2011719c0.5668945,0.3320313,1.1333008,0.515625,1.7001953,0.5488281  c0.5332031,0.0664063,1.0166016,0,1.4501953-0.1992188c0.2998047-0.0996094,0.5830078-0.2832031,0.8496094-0.5507813  c0.1669922-0.1660156,0.300293-0.3671875,0.4003906-0.5996094C71.8886719,19.6191406,71.9223633,19.4023438,71.8886719,19.2011719z   M71.0888672,17.6015625c0.0332031-0.0332031,0.0498047-0.0839844,0.0498047-0.1503906v-0.2988281  c-0.0664063-0.1679688-0.1333008-0.3007813-0.199707-0.4003906c-0.2333984-0.4667969-0.6835938-0.8496094-1.3500977-1.1503906  c-0.8334961-0.3671875-1.8833008-0.5664063-3.1499023-0.5996094c-0.0668945,0-0.1499023,0.0488281-0.25,0.1503906  c-0.1000977,0.1328125-0.1333008,0.3320313-0.1000977,0.5996094c0,0.265625,0.0332031,0.4667969,0.1000977,0.5996094  c0.0664063,0.0996094,0.1499023,0.1503906,0.25,0.1503906c1.0664063,0,1.9663086,0.0996094,2.699707,0.2988281  c0.5,0.1015625,0.9335938,0.25,1.300293,0.4511719l0.5,0.2988281  C71.0053711,17.5839844,71.0556641,17.6015625,71.0888672,17.6015625z M55.5390625,21.9511719  c-0.2333984-0.0996094-0.4335938-0.1660156-0.6000977-0.1992188c-0.1000977,0-0.1669922,0.015625-0.2001953,0.0488281  c-0.5,0.6347656-1.1333008,1.0175781-1.8999023,1.1503906c-0.3334961,0.0664063-0.7333984,0.0507813-1.2001953-0.0488281  l-0.5996094-0.1015625h-0.1503906v0.1503906c0.0336914,0.1679688,0.1503906,0.3671875,0.3500977,0.5996094  c0.2001953,0.1347656,0.3999023,0.2675781,0.6000977,0.4003906l0.5,0.1503906  c0.3334961,0.0664063,0.5166016,0.0996094,0.5498047,0.0996094c0.5,0.0332031,1-0.0664063,1.5-0.2988281  c0.6000977-0.2675781,1.1000977-0.6679688,1.5-1.2011719c0.0668945-0.0664063,0.0834961-0.1503906,0.050293-0.25  C55.9052734,22.2851563,55.7719727,22.1191406,55.5390625,21.9511719z M53.0888672,16.9511719  c-0.1000977-0.265625-0.2167969-0.4335938-0.3500977-0.5c-0.1000977-0.0664063-0.1831055-0.0664063-0.25,0l-0.5,0.2011719  l-0.6499023,0.3984375l-0.5498047,0.4511719c-0.0668945,0.0664063-0.2333984,0.265625-0.5,0.5996094  c-0.0336914,0.0664063-0.1503906,0.25-0.3500977,0.5507813c0,0.0332031-0.0834961,0.2167969-0.25,0.5488281l-0.1499023,0.4511719  l-0.1000977,0.6992188c0,0.3007813,0.0166016,0.5175781,0.0498047,0.6503906  c0.0332031,0.0996094,0.0668945,0.1503906,0.1000977,0.1503906l0.1499023-0.1015625  c0.1000977-0.0996094,0.2167969-0.265625,0.3500977-0.5l0.6000977-0.8496094  c0.0664063-0.0664063,0.1499023-0.1835938,0.25-0.3496094c0.6000977-0.7324219,1.2832031-1.25,2.0498047-1.5507813  C53.1889648,17.7011719,53.222168,17.4179688,53.0888672,16.9511719z M34.2387695,27.8515625  c-0.1333008,0.4003906-0.199707,0.6992188-0.199707,0.9003906c0,1.3320313,0.2998047,2.4160156,0.8999023,3.25l-0.050293-0.0507813  c-0.3999023,0.7011719-0.7998047,1.3164063-1.199707,1.8496094c-0.300293,0.4335938-0.6000977,0.8183594-0.8999023,1.1503906  c-0.5,0.5664063-0.9501953,0.9667969-1.3500977,1.2011719c-0.3999023,0.265625-0.7836914,0.3828125-1.1499023,0.3496094  l-0.3500977-0.0507813c-0.0336914-0.0332031-0.1333008-0.0996094-0.300293-0.1992188l-0.25-0.25l-0.199707-0.3007813  c-0.2333984-0.4003906-0.3500977-0.8164063-0.3500977-1.25s0.1499023-0.8828125,0.4501953-1.3496094  c0.3999023-0.6660156,1.0332031-1.3007813,1.8999023-1.9003906l-0.3500977,0.0507813  c-0.3334961,0.0332031-0.6166992,0.0488281-0.8500977,0.0488281c-0.6000977,0-1.2167969-0.0820313-1.8500977-0.25  c-0.3999023-0.0996094-0.7333984-0.2324219-1-0.3984375c-0.2333984-0.1347656-0.4165039-0.2832031-0.5498047-0.4511719  c-0.1665039-0.2324219-0.25-0.4824219-0.25-0.75c0-0.265625,0.0834961-0.5332031,0.25-0.7988281  c0.1665039-0.2011719,0.3164063-0.3671875,0.4501953-0.5c0.199707-0.2011719,0.3999023-0.3515625,0.5996094-0.4511719  c0.1333008-0.0664063,0.3666992-0.1503906,0.7001953-0.25c0.7666016-0.1992188,1.7333984-0.2324219,2.8999023-0.0996094  c1,0.1328125,1.9667969,0.3339844,2.8999023,0.5996094C34.1723633,27.9179688,34.2055664,27.8847656,34.2387695,27.8515625z   M47.0136719,39.5273438c-1.4858398,2.3378906-2.5942383,4.2050781-3.324707,5.5996094l0.0249023-0.0253906  c-1.6083984,3.2109375-2.4169922,6.09375-2.4248047,8.6503906c-0.0024414,3.6542969,0.9389648,6.7695313,2.824707,9.3496094  c2.1337891,2.8710938,5.0922852,4.3046875,8.875,4.3007813c5.3266602-0.0039063,9.1850586-1.0292969,11.5751953-3.0761719  c2.3852539-2.1132813,3.5766602-5.5703125,3.574707-10.375c-0.003418-1.0273438-0.4033203-4.0019531-1.199707-8.9238281  c-0.2089844,0.0390625-0.4257813,0.0800781-0.6499023,0.125c-0.1000977,0-0.2001953,0.015625-0.300293,0.0488281  c-1,0.1328125-1.8500977,0.2167969-2.5498047,0.25l-1.2001953,0.0507813c-0.3999023,0-0.7832031-0.0175781-1.1499023-0.0507813  c-0.2001953,0-0.5834961-0.0332031-1.1499023-0.0996094c-0.6000977-0.0664063-0.9501953-0.1171875-1.050293-0.1503906  c-1.1333008-0.1992188-2.3999023-0.5488281-3.7998047-1.0488281c-1.6333008-0.6015625-3.3334961-1.4667969-5.1000977-2.6015625  c-0.1333008-0.0664063-0.25-0.1328125-0.3500977-0.1992188c-0.699707-0.4667969-1.449707-0.9824219-2.25-1.5507813  C47.2636719,39.7109375,47.1386719,39.6191406,47.0136719,39.5273438z M58.5888672,40.7519531  c0.0664063,0.4667969,0.1499023,0.8496094,0.25,1.1503906c0.0664063,0.3320313,0.2001953,0.6484375,0.3999023,0.9492188  l0.300293,0.3007813l0.3999023,0.25c0.2666016,0.1328125,0.5498047,0.2167969,0.8500977,0.25  c0.2666016,0,0.5332031-0.0332031,0.7998047-0.1015625c0.2666016-0.0996094,0.5-0.2167969,0.7001953-0.3496094  c0.5-0.2988281,0.9663086-0.6660156,1.3999023-1.0996094l-1.300293-0.3007813  c-0.8666992-0.2324219-1.4833984-0.4160156-1.8496094-0.5488281c-0.7001953-0.234375-1.3500977-0.5-1.9501953-0.8007813V40.7519531z   M64.3886719,42.2519531l-0.449707,0.5488281c-0.4667969,0.4667969-0.8833008,0.8183594-1.25,1.0507813  c-0.1669922,0.1328125-0.300293,0.2167969-0.3999023,0.25h0.5498047c0.2666016-0.0332031,0.4501953-0.0507813,0.5498047-0.0507813  c0.7666016-0.0332031,1.550293-0.1152344,2.3500977-0.25c0.4335938-0.0898438,0.875-0.1894531,1.3251953-0.2988281  c0.3862305-0.09375,0.777832-0.1933594,1.1748047-0.3007813l0.7001953-0.1992188l-1.25-0.0996094  c-0.2475586-0.0449219-0.4975586-0.0878906-0.75-0.125c-0.840332-0.1699219-1.6733398-0.3457031-2.5-0.5253906H64.3886719z   M32.7387695,53.2519531c-0.1000977,0.1660156-0.1665039,0.3164063-0.199707,0.4492188  c-0.0668945,0.3007813-0.0668945,0.6679688,0,1.0996094c0.0996094,0.4667969,0.3330078,1.1171875,0.699707,1.9511719l0.300293,0.5  c0.3662109-1.2011719,0.6499023-2.2167969,0.8496094-3.0507813c0.2333984-0.9003906,0.4003906-1.6503906,0.5-2.25  c-0.699707,0.234375-1.2832031,0.5175781-1.75,0.8496094C32.9389648,53.0019531,32.8056641,53.1523438,32.7387695,53.2519531z   M16.1386719,57.0507813c-0.1665039-0.5-0.25-1.0332031-0.25-1.5996094c-1.0996094,0.8671875-2.1333008,1.7832031-3.0996094,2.75  c-0.800293,0.8339844-1.5170898,1.6503906-2.1503906,2.4511719c-0.699707,0.9316406-1.2666016,1.765625-1.699707,2.5  c-0.9667969,1.6328125-1.6669922,3.2988281-2.1000977,5C6.4052734,69.71875,6.222168,71.2519531,6.2890625,72.7519531  c0.0332031,0.9667969,0.1831055,1.9492188,0.449707,2.9492188c0.0668945,0.3007813,0.1499023,0.5996094,0.25,0.9003906  c0.1333008,0.4003906,0.3334961,0.9667969,0.6000977,1.6992188l0.6000977,1.5  c0.7666016,1.8339844,1.5166016,3.3671875,2.25,4.6015625l0.1000977,0.0996094l0.0498047-2.1503906  c0.0664063-0.6992188,0.1000977-1.0996094,0.1000977-1.1992188l0.449707-2.75  c0.0336914-0.1679688,0.0834961-0.4179688,0.1503906-0.75c0.0996094-0.4335938,0.1665039-0.6835938,0.199707-0.75l0.2001953-0.75  l0.0498047-0.0507813l0.25-0.8496094c0.1333008-0.5,0.2333984-0.8007813,0.300293-0.9003906l0.3496094-0.8496094  c0.1000977-0.3339844,0.3833008-0.9511719,0.8500977-1.8496094l0.5-0.9003906  c0.0668945-0.1328125,0.2333984-0.4511719,0.5-0.9511719l1.1499023-2c0.6333008-1.0996094,1.0834961-1.8496094,1.3500977-2.25  l0.2001953-0.2988281c0.3999023-0.5996094,0.8164063-1.1835938,1.25-1.75c0.3999023-0.5332031,1.0166016-1.25,1.8500977-2.1503906  l0.1499023-0.1503906l-0.800293-0.25c-0.7666016-0.2988281-1.449707-0.75-2.0498047-1.3496094  c-0.2998047-0.3007813-0.5498047-0.6171875-0.75-0.9492188c-0.2666016-0.4335938-0.4833984-0.9003906-0.6499023-1.4003906  C16.1552734,57.1855469,16.1386719,57.1191406,16.1386719,57.0507813z M18.2890625,66.1523438  c-0.4003906,0.6328125-0.8837891,1.4316406-1.4501953,2.3984375l-0.3500977,0.6015625l0.300293,0.2988281  c0.8999023,0.8671875,1.3662109,1.3164063,1.3999023,1.3496094c0.7666016,0.6347656,1.5166016,1.1171875,2.25,1.4511719  c0.5664063,0.2324219,1.1166992,0.4003906,1.6499023,0.5c0.7998047,0.1660156,1.4667969,0.2832031,2,0.3496094  c0.8334961,0.0996094,1.6000977,0.1328125,2.2998047,0.0996094c0.6333008-0.0332031,1.2333984-0.1660156,1.800293-0.4003906  c0.5664063-1.5,1.25-3.4824219,2.0498047-5.9492188l0.800293-2.25l-1.8500977,1.0507813  c-0.2666016,0.1660156-0.4667969,0.2832031-0.6000977,0.3496094l-0.6499023,0.25  c-0.2666016,0.0996094-0.6669922,0.2324219-1.2001953,0.4003906l-0.949707,0.25h-0.050293l-0.449707,0.1484375l-1.75,0.25  c-0.4335938,0.0332031-0.75,0.0507813-0.9501953,0.0507813c-0.6000977,0-1.1499023-0.0332031-1.6499023-0.0996094  c-0.4335938-0.0664063-0.8833008-0.2167969-1.3500977-0.4511719c-0.2666016-0.0996094-0.5834961-0.265625-0.9501953-0.5  L18.2890625,66.1523438z M30.2890625,63.3515625c0.1333008-0.0996094,0.3330078-0.25,0.5996094-0.4492188l0.800293-0.6015625  c-0.5668945-0.0996094-1.050293-0.1328125-1.4501953-0.0996094h-0.3500977l-0.2998047,0.0507813  c-0.2001953,0.0664063-0.3666992,0.1503906-0.5,0.25c-0.2666016,0.1328125-0.5498047,0.3671875-0.8500977,0.6992188  c-0.3334961,0.3671875-0.7167969,0.9179688-1.1499023,1.6503906l-0.25,0.3496094l1.7001953-0.75  c0.3662109-0.1992188,0.5664063-0.3164063,0.5996094-0.3496094l0.550293-0.3496094  C29.8886719,63.6523438,30.0888672,63.5175781,30.2890625,63.3515625z"/><text x="0" y="115" fill="#000000" font-size="5px" font-weight="bold" font-family="'Helvetica Neue', Helvetica, Arial-Unicode, Arial, Sans-serif">Created by Saeful Muslim</text><text x="0" y="120" fill="#000000" font-size="5px" font-weight="bold" font-family="'Helvetica Neue', Helvetica, Arial-Unicode, Arial, Sans-serif">from the Noun Project</text></svg>